<?xml version="1.0" encoding="UTF-8" standalone="no"?>
<svg
   xmlns:dc="http://purl.org/dc/elements/1.1/"
   xmlns:cc="http://creativecommons.org/ns#"
   xmlns:rdf="http://www.w3.org/1999/02/22-rdf-syntax-ns#"
   xmlns:svg="http://www.w3.org/2000/svg"
   xmlns="http://www.w3.org/2000/svg"
   xmlns:sodipodi="http://sodipodi.sourceforge.net/DTD/sodipodi-0.dtd"
   xmlns:inkscape="http://www.inkscape.org/namespaces/inkscape"
   viewBox="0 0 22 22"
   id="svg"
   version="1.1"
   width="100%"
   height="100%"
   sodipodi:docname="akonadi.svg"
   inkscape:version="0.92.4 (5da689c313, 2019-01-14)">
  <sodipodi:namedview
     pagecolor="#ffffff"
     bordercolor="#666666"
     borderopacity="1"
     objecttolerance="10"
     gridtolerance="10"
     guidetolerance="10"
     inkscape:pageopacity="0"
     inkscape:pageshadow="2"
     inkscape:window-width="1280"
     inkscape:window-height="977"
     id="namedview9"
     showgrid="false"
     inkscape:zoom="10.727273"
     inkscape:cx="-2.563559"
     inkscape:cy="11"
     inkscape:window-x="0"
     inkscape:window-y="0"
     inkscape:window-maximized="1"
     inkscape:current-layer="akonadi" />
  <defs
     id="defs81">
    <style
       id="current-color-scheme"
       type="text/css">
      .ColorScheme-Text {
        color:#7B7C7E;
      }
      .ColorScheme-Background{
        color:#EFF0F1;
      }
      .ColorScheme-Highlight{
        color:#3DAEE6;
      }
      .ColorScheme-ViewText {
        color:#7B7C7E;
      }
      .ColorScheme-ViewBackground{
        color:#FCFCFC;
      }
      .ColorScheme-ViewHover {
        color:#3DAEE6;
      }
      .ColorScheme-ViewFocus{
        color:#1E92FF;
      }
      .ColorScheme-ButtonText {
        color:#7B7C7E;
      }
      .ColorScheme-ButtonBackground{
        color:#EFF0F1;
      }
      .ColorScheme-ButtonHover {
        color:#3DAEE6;
      }
      .ColorScheme-ButtonFocus{
        color:#1E92FF;
      }
</style>
  </defs>
  <metadata
     id="metadata34">
    <rdf:RDF>
      <cc:Work
         rdf:about="">
        <dc:format>image/svg+xml</dc:format>
        <dc:type
           rdf:resource="http://purl.org/dc/dcmitype/StillImage" />
        <dc:title />
      </cc:Work>
    </rdf:RDF>
  </metadata>
  <g
     transform="translate(-265,-1186.3622)"
     id="akonadi">
    <rect
       style="opacity:0.01000001;fill:#31363b;fill-opacity:0.00392157;stroke:none"
       id="rect7903"
       width="22"
       height="22.000017"
       x="265"
       y="1186.3622"
       rx="0"
       ry="0" />
    <path
       style="fill:#a1b4ba;fill-opacity:1;stroke:none"
       d="m 276,1189.8622 c -1.50527,0 -3.0074,0.5263 -4.21875,1.5625 l -0.375,-0.375 -0.34375,-0.3437 -0.375,0.3437 c -1.46238,1.4624 -2.1875,3.3874 -2.1875,5.3125 l -1.5,0 c 0,4.9706 4.02944,9 9,9 4.97056,0 9,-4.0294 9,-9 l -2.5,0 c 0.003,-1.6666 -0.63643,-3.3239 -1.90625,-4.5937 -1.26711,-1.2671 -2.92921,-1.9063 -4.59375,-1.9063 z m 0.25,1.0313 c 1.3157,0.043 2.61115,0.5799 3.625,1.5937 1.07951,1.0795 1.57634,2.4768 1.5625,3.875 l -4.75,0 -0.34375,-0.3437 -3.8125,-3.8438 c 1.08167,-0.8966 2.40305,-1.3238 3.71875,-1.2812 z m -5.125,1.2812 0.28125,0.3125 3.90625,3.875 -5.78125,0 c 0.0187,-1.4919 0.56144,-2.9763 1.59375,-4.1875 z"
       id="path2990"
       class="ColorScheme-Text" />
  </g>
</svg>
