<?xml version="1.0" encoding="UTF-8" standalone="no"?>
<svg
   xmlns:dc="http://purl.org/dc/elements/1.1/"
   xmlns:cc="http://creativecommons.org/ns#"
   xmlns:rdf="http://www.w3.org/1999/02/22-rdf-syntax-ns#"
   xmlns:svg="http://www.w3.org/2000/svg"
   xmlns="http://www.w3.org/2000/svg"
   xmlns:xlink="http://www.w3.org/1999/xlink"
   xmlns:sodipodi="http://sodipodi.sourceforge.net/DTD/sodipodi-0.dtd"
   xmlns:inkscape="http://www.inkscape.org/namespaces/inkscape"
   id="svg2"
   width="22"
   height="22"
   version="1.0"
   sodipodi:docname="computer.svg"
   inkscape:version="0.92.4 (5da689c313, 2019-01-14)">
  <sodipodi:namedview
     pagecolor="#ffffff"
     bordercolor="#666666"
     borderopacity="1"
     objecttolerance="10"
     gridtolerance="10"
     guidetolerance="10"
     inkscape:pageopacity="0"
     inkscape:pageshadow="2"
     inkscape:window-width="1920"
     inkscape:window-height="1031"
     id="namedview30"
     showgrid="false"
     inkscape:zoom="10.727273"
     inkscape:cx="15.377169"
     inkscape:cy="18.457627"
     inkscape:window-x="0"
     inkscape:window-y="0"
     inkscape:window-maximized="1"
     inkscape:current-layer="svg2" />
  <metadata
     id="metadata7">
    <rdf:RDF>
      <cc:Work
         rdf:about="">
        <dc:format>image/svg+xml</dc:format>
        <dc:type
           rdf:resource="http://purl.org/dc/dcmitype/StillImage" />
        <dc:title />
      </cc:Work>
    </rdf:RDF>
  </metadata>
  <defs
     id="defs5">
    <linearGradient
       inkscape:collect="always"
       id="linearGradient840">
      <stop
         style="stop-color:#007c5d;stop-opacity:1"
         offset="0"
         id="stop836" />
      <stop
         style="stop-color:#3771c8;stop-opacity:1"
         offset="1"
         id="stop838" />
    </linearGradient>
    <style
       id="current-color-scheme"
       type="text/css">
      .ColorScheme-Text {
        color:#31363b;
      }
      .ColorScheme-Background{
        color:#E9E8E8;
      }
      .ColorScheme-ViewText {
        color:#000000;
      }
      .ColorScheme-ViewBackground{
        color:#ffffff;
      }
      .ColorScheme-ViewHover {
        color:#000000;
      }
      .ColorScheme-ViewFocus{
        color:#5a5a5a;
      }
      .ColorScheme-ButtonText {
        color:#000000;
      }
      .ColorScheme-ButtonBackground{
        color:#E9E8E8;
      }
      .ColorScheme-ButtonHover {
        color:#1489ff;
      }
      .ColorScheme-ButtonFocus{
        color:#2B74C7;
      }
</style>
    <linearGradient
       inkscape:collect="always"
       xlink:href="#linearGradient840"
       id="linearGradient842"
       x1="388.65479"
       y1="536.05835"
       x2="412.4881"
       y2="521.39172"
       gradientUnits="userSpaceOnUse" />
    <linearGradient
       inkscape:collect="always"
       xlink:href="#linearGradient840"
       id="linearGradient850"
       x1="250.83331"
       y1="1053.8622"
       x2="269.16663"
       y2="1041.9456"
       gradientUnits="userSpaceOnUse" />
    <linearGradient
       inkscape:collect="always"
       xlink:href="#linearGradient840"
       id="linearGradient858"
       x1="388.57144"
       y1="535.4646"
       x2="412.57141"
       y2="522.13135"
       gradientUnits="userSpaceOnUse" />
    <linearGradient
       inkscape:collect="always"
       xlink:href="#linearGradient840"
       id="linearGradient866"
       x1="250.66666"
       y1="1053.6956"
       x2="269.33334"
       y2="1041.6956"
       gradientUnits="userSpaceOnUse" />
    <linearGradient
       inkscape:collect="always"
       xlink:href="#linearGradient840"
       id="linearGradient874"
       x1="389.57404"
       y1="536.97894"
       x2="411.58957"
       y2="522.30194"
       gradientUnits="userSpaceOnUse" />
    <linearGradient
       inkscape:collect="always"
       xlink:href="#linearGradient840"
       id="linearGradient884"
       gradientUnits="userSpaceOnUse"
       x1="252.81615"
       y1="1052.0288"
       x2="267.48276"
       y2="1042.8622" />
  </defs>
  <g
     id="22-22-computer"
     transform="matrix(0.75000099,0,0,0.75000099,-289.42897,-387.59902)">
    <rect
       style="opacity:0.01000001;fill:#00000f;fill-opacity:0.00392157;stroke:none"
       id="rect3074"
       width="29.333307"
       height="29.333271"
       x="385.90479"
       y="516.79803" />
    <path
       id="rect7235"
       style="fill:#00ccff;fill-opacity:1;stroke:none"
       d="m 393.90479,542.13129 13.33334,0 0,1.33335 -13.33334,0 z m 4,-2.66666 5.33332,0 0,2.66664 -5.33332,0 z m -10.66667,-18.66662 0,18.6666 26.66663,0 0,-18.6666 z m 1.33333,1.33333 23.99997,0 0,13.33328 -23.99997,0 z"
       class="ColorScheme-Text" />
    <rect
       style="opacity:1;fill:url(#linearGradient858);fill-opacity:1;stroke:none"
       id="rect7240"
       width="23.999973"
       height="13.333305"
       x="388.57144"
       y="522.13135"
       class="ColorScheme-Text" />
  </g>
  <g
     transform="matrix(0.75,0,0,0.75,-148,-775.27164)"
     id="22-22-computer-laptop">
    <rect
       style="opacity:0.01000001;fill:#31363b;fill-opacity:0.00392157;stroke:none"
       id="rect7292"
       width="29.333338"
       height="29.333296"
       x="245.33333"
       y="1033.6956" />
    <path
       class="ColorScheme-Text"
       id="rect7296"
       d="m 249.33333,1040.3622 0,14.6667 -2.66666,0 c 0,2 2,2.6667 2,2.6667 l 22.66666,0 c 0,0 2,-0.6667 2,-2.6667 l -2.66666,0 0,-14.6667 z m 1.33333,1.3333 18.66667,0 0,12.0001 -18.66667,0 z"
       style="fill:#00ccff;fill-opacity:1;stroke:none" />
    <rect
       class="ColorScheme-Text"
       y="1041.6956"
       x="250.66667"
       height="12.000219"
       width="18.666662"
       id="rect7300"
       style="opacity:1;fill:url(#linearGradient866);fill-opacity:1;stroke:none" />
  </g>
  <g
     transform="matrix(1.09091,0,0,1.09091,-420.9874,-597.79142)"
     id="computer">
    <rect
       y="516.79803"
       x="385.90479"
       height="29.333271"
       width="29.333307"
       id="rect3018"
       style="opacity:0.01000001;fill:#00000f;fill-opacity:0.00392157;stroke:none" />
    <path
       class="ColorScheme-Text"
       d="m 394.15479,542.47502 12.83332,0 0,0.91666 -12.83332,0 z m 3.75,-2.74998 5.33332,0 0,2.74996 -5.33332,0 z m -10.16666,-19.25001 0,19.24999 25.66664,0 0,-19.24999 z m 0.91666,0.91667 23.83332,10e-6 0,14.66664 -23.83332,0 z"
       style="fill:#00ccff;fill-opacity:1;stroke:none"
       id="path3020" />
    <rect
       class="ColorScheme-Text"
       y="521.39172"
       x="388.65479"
       height="14.666632"
       width="23.833321"
       id="rect3022"
       style="opacity:1;fill:url(#linearGradient842);fill-opacity:1;stroke:none" />
  </g>
  <g
     id="computer-laptop"
     transform="matrix(1.0909105,0,0,1.0909105,-231.6367,-1161.6693)">
    <rect
       y="1033.6956"
       x="245.33333"
       height="29.333296"
       width="29.333338"
       id="rect3026"
       style="opacity:0.01000001;fill:#31363b;fill-opacity:0.00392157;stroke:none" />
    <path
       style="fill:#00ccff;fill-opacity:1;stroke:none"
       d="m 249.91665,1041.0288 0,13.75 -2.66666,0 c 0,2 2.41668,2.75 2.41668,2.75 l 20.66666,0 c 0,0 2.41662,-0.75 2.41662,-2.75 l -2.66666,0 0,-13.75 z m 0.91667,0.9166 18.33331,0 0,11.9168 -18.33331,0 z"
       id="path3028"
       class="ColorScheme-Text" />
    <rect
       style="opacity:1;fill:url(#linearGradient850);fill-opacity:1;stroke:none"
       id="rect3030"
       width="18.333315"
       height="11.916634"
       x="250.83331"
       y="1041.9456"
       class="ColorScheme-Text" />
  </g>
  <g
     id="16-16-computer"
     transform="matrix(0.54506989,0,0,0.54506989,-210.34508,-255.67973)">
    <rect
       style="opacity:0.01000001;fill:#00000f;fill-opacity:0.00392157;stroke:none"
       id="rect3034"
       width="29.333307"
       height="29.333271"
       x="385.90479"
       y="516.79803" />
    <path
       id="path3036"
       style="fill:#00ccff;fill-opacity:1;stroke:none"
       d="m 393.2433,540.64039 14.67701,0 0,1.84243 -14.67701,0 z m 4.66149,-1.82681 5.33332,0 0,1.82679 -5.33332,0 z m -10.16666,-18.33855 0,18.33853 25.66664,0 0,-18.33853 z m 1.83591,1.82689 22.01553,10e-6 0,12.84238 -22.01553,0 z"
       class="ColorScheme-Text" />
    <rect
       style="opacity:1;fill:url(#linearGradient874);fill-opacity:1;stroke:none"
       id="rect3038"
       width="22.015543"
       height="14.677011"
       x="389.57404"
       y="522.30194"
       class="ColorScheme-Text" />
  </g>
  <g
     transform="matrix(0.5454565,0,0,0.5454565,-97.818659,-537.836)"
     id="16-16-computer-laptop">
    <rect
       style="opacity:0.01000001;fill:#31363b;fill-opacity:0.00392157;stroke:none"
       id="rect3042"
       width="29.333338"
       height="29.333296"
       x="245.33333"
       y="1033.6956" />
    <path
       class="ColorScheme-Text"
       id="path3044"
       d="m 250.98282,1041.0288 0,12.8334 -3.73283,0 c 0,2 2.41668,3.6666 2.41668,3.6666 l 20.66666,0 c 0,0 2.41662,-1.6666 2.41662,-3.6666 l -3.43386,0 0,-12.8334 z m 1.83333,1.8334 14.66661,0 0,9.1666 -14.66661,0 z"
       style="fill:#00ccff;fill-opacity:1;stroke:none" />
    <rect
       class="ColorScheme-Text"
       y="1042.8622"
       x="252.81615"
       height="9.1666412"
       width="14.666613"
       id="rect3046"
       style="opacity:1;fill:url(#linearGradient884);fill-opacity:1;stroke:none" />
  </g>
</svg>
