<?xml version="1.0" encoding="UTF-8" standalone="no"?>
<svg
   xmlns:dc="http://purl.org/dc/elements/1.1/"
   xmlns:cc="http://creativecommons.org/ns#"
   xmlns:rdf="http://www.w3.org/1999/02/22-rdf-syntax-ns#"
   xmlns:svg="http://www.w3.org/2000/svg"
   xmlns="http://www.w3.org/2000/svg"
   xmlns:sodipodi="http://sodipodi.sourceforge.net/DTD/sodipodi-0.dtd"
   xmlns:inkscape="http://www.inkscape.org/namespaces/inkscape"
   viewBox="0 0 22 22"
   id="svg"
   version="1.1"
   width="100%"
   height="100%"
   sodipodi:docname="klipper.svgz"
   inkscape:version="0.92.4 (5da689c313, 2019-01-14)">
  <sodipodi:namedview
     pagecolor="#ffffff"
     bordercolor="#666666"
     borderopacity="1"
     objecttolerance="10"
     gridtolerance="10"
     guidetolerance="10"
     inkscape:pageopacity="0"
     inkscape:pageshadow="2"
     inkscape:window-width="1280"
     inkscape:window-height="977"
     id="namedview12"
     showgrid="false"
     inkscape:zoom="10.727273"
     inkscape:cx="9.6483051"
     inkscape:cy="14.728814"
     inkscape:window-x="0"
     inkscape:window-y="0"
     inkscape:window-maximized="1"
     inkscape:current-layer="svg" />
  <defs
     id="defs81">
    <style
       id="current-color-scheme"
       type="text/css">
      .ColorScheme-Text {
        color:#7B7C7E;
      }
      .ColorScheme-Background{
        color:#EFF0F1;
      }
      .ColorScheme-Highlight{
        color:#3DAEE6;
      }
      .ColorScheme-ViewText {
        color:#7B7C7E;
      }
      .ColorScheme-ViewBackground{
        color:#FCFCFC;
      }
      .ColorScheme-ViewHover {
        color:#3DAEE6;
      }
      .ColorScheme-ViewFocus{
        color:#1E92FF;
      }
      .ColorScheme-ButtonText {
        color:#7B7C7E;
      }
      .ColorScheme-ButtonBackground{
        color:#EFF0F1;
      }
      .ColorScheme-ButtonHover {
        color:#3DAEE6;
      }
      .ColorScheme-ButtonFocus{
        color:#1E92FF;
      }
</style>
  </defs>
  <metadata
     id="metadata34">
    <rdf:RDF>
      <cc:Work
         rdf:about="">
        <dc:format>image/svg+xml</dc:format>
        <dc:type
           rdf:resource="http://purl.org/dc/dcmitype/StillImage" />
        <dc:title />
      </cc:Work>
    </rdf:RDF>
  </metadata>
  <g
     id="22-22-klipper"
     transform="translate(-1,-1)">
    <rect
       style="fill:#ffffff;fill-opacity:0;stroke:none"
       id="rect3009"
       width="22"
       height="22"
       x="1"
       y="1" />
    <path
       style="fill:#a1b4ba;fill-opacity:1;stroke:none"
       d="m 5,4 0,1 0,13 1,0 2,0 1,0 0,1 0,1 6,0 4,-4 0,-1 L 19,8 19,7 17,7 17,4 16,4 6,4 5,4 z M 6,5 16,5 16,7 9,7 9,8 9,17 8,17 6,17 6,5 z m 4,3 8,0 0,7 -3,0 -1,0 0,1 0,3 -4,0 0,-11 z"
       id="rect4147"
       class="ColorScheme-Text" />
  </g>
  <g
     transform="translate(-1,-26)"
     id="klipper">
    <rect
       y="-8"
       x="1"
       height="30.999985"
       width="32"
       id="rect2988"
       style="fill:#ffffff;fill-opacity:0;stroke:none" />
    <path
       class="ColorScheme-Text"
       id="path2990"
       d="m 7,-4 0,1.5 0,19.5 1.5,0 3,0 1.5,0 0,1.5 0,1.5 8,0 7,-7 0,-1.5 0,-10.5 0,-1 -3,0 0,-4 -1.5,0 -15,0 z m 1,1 16,0 0,3 -11,0 0,1 0,15 -1.5,0 -3.5,0 z m 6,4 13,0 0,11 -5,0 -2,0 0,2 0,5 -6,0 z"
       style="fill:#a1b4ba;fill-opacity:1;stroke:none" />
  </g>
</svg>
