<?xml version="1.0" encoding="UTF-8" standalone="no"?>
<svg
   xmlns:dc="http://purl.org/dc/elements/1.1/"
   xmlns:cc="http://creativecommons.org/ns#"
   xmlns:rdf="http://www.w3.org/1999/02/22-rdf-syntax-ns#"
   xmlns:svg="http://www.w3.org/2000/svg"
   xmlns="http://www.w3.org/2000/svg"
   xmlns:sodipodi="http://sodipodi.sourceforge.net/DTD/sodipodi-0.dtd"
   xmlns:inkscape="http://www.inkscape.org/namespaces/inkscape"
   version="1.1"
   width="24"
   height="24"
   id="svg2"
   sodipodi:docname="knotes.svgz"
   inkscape:version="0.92.4 (5da689c313, 2019-01-14)">
  <sodipodi:namedview
     pagecolor="#ffffff"
     bordercolor="#666666"
     borderopacity="1"
     objecttolerance="10"
     gridtolerance="10"
     guidetolerance="10"
     inkscape:pageopacity="0"
     inkscape:pageshadow="2"
     inkscape:window-width="1280"
     inkscape:window-height="977"
     id="namedview10"
     showgrid="false"
     inkscape:zoom="4.9166667"
     inkscape:cx="-1.2343679"
     inkscape:cy="-7.798232"
     inkscape:window-x="0"
     inkscape:window-y="0"
     inkscape:window-maximized="1"
     inkscape:current-layer="svg2" />
  <defs
     id="defs4" />
  <metadata
     id="metadata7">
    <rdf:RDF>
      <cc:Work
         rdf:about="">
        <dc:format>image/svg+xml</dc:format>
        <dc:type
           rdf:resource="http://purl.org/dc/dcmitype/StillImage" />
        <dc:title />
      </cc:Work>
    </rdf:RDF>
  </metadata>
  <g
     id="knotes"
     transform="translate(45,-1032.3622)">
    <path
       style="opacity:0.90776702;fill:#ffffff;fill-opacity:1;stroke:none"
       id="path3875"
       d="m -39.000002,1037.4075 c 0.104855,0 2.000002,-10e-5 3.000002,-10e-5 1,0 1,-1 3,-1 2,0 2,1 3,1 3,0 3,0 3,0 2,0 2,0 2,2 0,0 0,6.5559 0,10 0,1 -4.005023,5 -5,5 -2.096278,0 -10,0 -10,0 -1,0 -1,0 -1,-2 0,0 -0.07642,-7.8372 0,-13 0,-2 0,-2 2,-2 2,0 -10e-7,10e-5 -2e-6,10e-5 z" />
    <rect
       style="opacity:0;fill:#00bdff;fill-opacity:0.52261305;fill-rule:nonzero;stroke:none"
       id="rect2987"
       y="1032.3622"
       x="-45"
       ry="0"
       rx="0"
       height="24"
       width="24" />
    <path
       style="fill:#00cc99;fill-opacity:1;stroke:none"
       id="path3860"
       d="m -39.000002,1036.3623 c 0.104855,0 2.000002,-10e-5 3.000002,-10e-5 1,0 1,-1 3,-1 2,0 2,1 3,1 3,0 3,0 3,0 2,0 2,0 2,2 0,0 0,6.5559 0,10 0,1 -4.005023,5 -5,5 -2.096278,0 -10,0 -10,0 -1,0 -1,0 -1,-2 0,0 -0.07642,-7.8372 0,-13 0,-2 0,-2 2,-2 2,0 -10e-7,10e-5 -2e-6,10e-5 z" />
    <path
       style="fill:#eaeaea;fill-opacity:1;fill-rule:nonzero;stroke:none"
       id="path2990"
       transform="translate(-45.5,1033.3622)"
       d="m 14,4.5000172 a 1.5,1.5 0 1 1 -3,0 1.5,1.5 0 1 1 3,0 z" />
  </g>
</svg>
