<?xml version="1.0" encoding="UTF-8" standalone="no"?>
<svg
   xmlns:dc="http://purl.org/dc/elements/1.1/"
   xmlns:cc="http://creativecommons.org/ns#"
   xmlns:rdf="http://www.w3.org/1999/02/22-rdf-syntax-ns#"
   xmlns:svg="http://www.w3.org/2000/svg"
   xmlns="http://www.w3.org/2000/svg"
   xmlns:sodipodi="http://sodipodi.sourceforge.net/DTD/sodipodi-0.dtd"
   xmlns:inkscape="http://www.inkscape.org/namespaces/inkscape"
   id="svg7826"
   height="24"
   width="24"
   version="1.1"
   sodipodi:docname="ktimer.svg"
   inkscape:version="0.92.4 (5da689c313, 2019-01-14)">
  <sodipodi:namedview
     pagecolor="#ffffff"
     bordercolor="#666666"
     borderopacity="1"
     objecttolerance="10"
     gridtolerance="10"
     guidetolerance="10"
     inkscape:pageopacity="0"
     inkscape:pageshadow="2"
     inkscape:window-width="1280"
     inkscape:window-height="977"
     id="namedview12"
     showgrid="false"
     inkscape:zoom="9.8333333"
     inkscape:cx="12"
     inkscape:cy="12"
     inkscape:window-x="0"
     inkscape:window-y="0"
     inkscape:window-maximized="1"
     inkscape:current-layer="svg7826" />
  <defs
     id="defs7828" />
  <metadata
     id="metadata7831">
    <rdf:RDF>
      <cc:Work
         rdf:about="">
        <dc:format>image/svg+xml</dc:format>
        <dc:type
           rdf:resource="http://purl.org/dc/dcmitype/StillImage" />
        <dc:title />
      </cc:Work>
    </rdf:RDF>
  </metadata>
  <g
     id="ktimer"
     transform="translate(0,-1028.3622)">
    <g
       id="123">
      <rect
         style="opacity:0;fill:#a3a3a3;fill-opacity:1;stroke:none"
         id="bg_hide"
         y="1028.3622"
         x="-2.220446e-16"
         height="23.999966"
         width="24" />
      <g
         id="g3050"
         transform="matrix(0.81485969,0,0,0.76860017,2.0932148,240.73762)">
        <path
           style="fill:#ffffff;fill-opacity:1;fill-rule:evenodd;stroke:none"
           id="path4020"
           d="m 21.833565,1040.5039 a 9.8058253,10.287668 0 0 1 -19.6116503,0 9.8058253,10.287668 0 1 1 19.6116503,0 z" />
        <path
           style="fill:#353535;fill-opacity:1;stroke:#00cc99;stroke-width:1.19766212;stroke-miterlimit:4;stroke-dasharray:none;stroke-opacity:1"
           id="path3778"
           d="m 21.258735,1039.9592 a 9.2113918,9.3557929 0 0 1 -18.4227832,0 9.2113918,9.3557929 0 1 1 18.4227832,0 z" />
        <path
           style="fill:#a1b4ba;fill-opacity:1;fill-rule:evenodd;stroke:none;stroke-opacity:1"
           id="path3778-2"
           d="m 12.301202,1031.1603 c -2.308864,-0.065 -4.6289829,0.8668 -6.2835893,2.523 -1.6546063,1.6565 -2.6218352,4.0159 -2.6195507,6.3899 0,4.6638 3.821265,8.9387 8.666174,8.9073 4.537508,-0.03 8.696906,-3.9602 8.666175,-8.9073 0.0044,-4.995 -3.969419,-8.7874 -8.429209,-8.9129 z m 6.161108,3.1212 -6.702743,8.3233 -2.09884,-2.2542 z" />
      </g>
    </g>
  </g>
</svg>
