<?xml version="1.0" encoding="UTF-8" standalone="no"?>
<svg
   xmlns:dc="http://purl.org/dc/elements/1.1/"
   xmlns:cc="http://creativecommons.org/ns#"
   xmlns:rdf="http://www.w3.org/1999/02/22-rdf-syntax-ns#"
   xmlns:svg="http://www.w3.org/2000/svg"
   xmlns="http://www.w3.org/2000/svg"
   xmlns:sodipodi="http://sodipodi.sourceforge.net/DTD/sodipodi-0.dtd"
   xmlns:inkscape="http://www.inkscape.org/namespaces/inkscape"
   viewBox="0 0 24 24"
   id="svg"
   version="1.1"
   width="100%"
   height="100%"
   sodipodi:docname="touchpad.svg"
   inkscape:version="0.92.4 (5da689c313, 2019-01-14)">
  <sodipodi:namedview
     pagecolor="#ffffff"
     bordercolor="#666666"
     borderopacity="1"
     objecttolerance="10"
     gridtolerance="10"
     guidetolerance="10"
     inkscape:pageopacity="0"
     inkscape:pageshadow="2"
     inkscape:window-width="1280"
     inkscape:window-height="977"
     id="namedview14"
     showgrid="false"
     inkscape:zoom="9.8333333"
     inkscape:cx="12"
     inkscape:cy="12"
     inkscape:window-x="0"
     inkscape:window-y="0"
     inkscape:window-maximized="1"
     inkscape:current-layer="svg" />
  <defs
     id="defs81">
    <style
       id="current-color-scheme"
       type="text/css">
      .ColorScheme-Text {
        color:#7B7C7E;
      }
      .ColorScheme-Background{
        color:#EFF0F1;
      }
      .ColorScheme-Highlight{
        color:#3DAEE6;
      }
      .ColorScheme-ViewText {
        color:#7B7C7E;
      }
      .ColorScheme-ViewBackground{
        color:#FCFCFC;
      }
      .ColorScheme-ViewHover {
        color:#3DAEE6;
      }
      .ColorScheme-ViewFocus{
        color:#1E92FF;
      }
      .ColorScheme-ButtonText {
        color:#7B7C7E;
      }
      .ColorScheme-ButtonBackground{
        color:#EFF0F1;
      }
      .ColorScheme-ButtonHover {
        color:#3DAEE6;
      }
      .ColorScheme-ButtonFocus{
        color:#1E92FF;
      }
</style>
  </defs>
  <metadata
     id="metadata34">
    <rdf:RDF>
      <cc:Work
         rdf:about="">
        <dc:format>image/svg+xml</dc:format>
        <dc:type
           rdf:resource="http://purl.org/dc/dcmitype/StillImage" />
        <dc:title />
      </cc:Work>
    </rdf:RDF>
  </metadata>
  <g
     id="touchpad_enabled">
    <rect
       style="fill:#ffffff;fill-opacity:0;stroke:none"
       id="rect3009"
       width="24"
       height="24"
       x="0"
       y="0" />
    <path
       style="fill:#a1b4ba;fill-opacity:1;stroke:none"
       d="m 2,3 0,1 0,9.96875 0,1 L 2,20 l 0,1 1,0 18,0 1,0 0,-1 L 22,4 22,3 21,3 3,3 2,3 z M 3,4 21,4 21,20 3,20 3,4 z"
       id="rect8531"
       class="ColorScheme-Text" />
    <path
       style="fill:#a1b4ba;fill-opacity:1;stroke:none"
       d="m 4,16 0,3 7,0 0,-3 -7,0 z m 9,0 0,3 7,0 0,-3 -7,0 z"
       id="rect2995"
       class="ColorScheme-Text" />
  </g>
  <g
     id="touchpad_disabled"
     transform="translate(24,0)">
    <rect
       y="0"
       x="0"
       height="24"
       width="24"
       id="rect2994"
       style="fill:#ffffff;fill-opacity:0;stroke:none" />
    <path
       class="ColorScheme-Text"
       id="path2996"
       d="m 2,3 0,1 0,9.96875 0,1 L 2,20 l 0,1 1,0 18,0 1,0 0,-1 L 22,4 22,3 21,3 3,3 2,3 z M 3,4 21,4 21,20 3,20 3,4 z"
       style="opacity:0.4;fill:#a1b4ba;fill-opacity:1;stroke:none" />
    <path
       class="ColorScheme-Text"
       id="path2998"
       d="m 4,16 0,3 7,0 0,-3 -7,0 z m 9,0 0,3 7,0 0,-3 -7,0 z"
       style="opacity:0.4;fill:#a1b4ba;fill-opacity:1;stroke:none" />
  </g>
</svg>
